:SAMPLES-PER-SECOND 30
:FULLY-SPECIFIED
:DEGREES
28
root  14.0872 40.0507 0.92797 -107.844 -88.7543 104.244
RightUpLeg  3.43759 -8.23662 -4.64663
RightLeg  3.75421 3.6372 -0.150081
RightFoot  -3.90953 -0.115851 1.35395
RightToes  4.6566e-010 0 -3.6325e-017
Spine  2.37829 0.0721312 0.638449
Spine1  3.39197 0.291842 -0.666464
HEad  -8.89243 -10.2577 -2.14163
LeftShoulder1  0.146787 2.17172 -3.03652
LeftArm  -21.6056 2.70195 -15.264
LeftForeArm  -1.6198 1.62802 2.70478
LeftHand  -0.0835791 3.20756 3.64459
RightShoulder  0.0869112 -2.5532 1.10877
RightArm  -11.4294 1.56829 9.83562
RightForeArm  -4.37936 -2.07435 -3.44175
RightHand  -0.190787 6.40148 -2.2169
LeftUpLeg  3.33696 7.05343 3.87926
LeftLeg  1.80774 -3.03751 0.415952
LeftFoot  -1.40576 0.045453 -0.381524
LeftToes  -4.59298e-010 2.08438e-011 -1.27151e-011
29
root  14.0848 40.0515 0.931534 -107.449 -88.7548 103.836
RightUpLeg  3.45749 -8.23855 -4.64197
RightLeg  3.72971 3.61994 -0.164288
RightFoot  -3.88876 -0.107037 1.21718
RightToes  4.6566e-010 0 -3.6325e-017
Spine  2.46087 0.0690604 0.666268
Spine1  3.33082 0.296417 -0.697681
HEad  -8.87812 -10.2789 -2.15505
LeftShoulder1  0.145154 2.20211 -2.87682
LeftArm  -21.5763 2.72708 -15.4138
LeftForeArm  -1.67261 1.63537 2.69476
LeftHand  -0.0920318 2.89034 3.68141
RightShoulder  0.0865608 -2.57629 1.12242
RightArm  -11.4719 1.62606 9.83335
RightForeArm  -4.32729 -2.1291 -3.45887
RightHand  -0.186231 6.54652 -2.15237
LeftUpLeg  3.34177 7.07615 3.88513
LeftLeg  1.82307 -3.06465 0.387423
LeftFoot  -1.40861 0.0368976 -0.248567
LeftToes  -4.59298e-010 2.08438e-011 -1.27151e-011
30
root  14.085 40.0521 0.933669 -107.376 -88.7846 103.814
RightUpLeg  3.40492 -8.2164 -4.60588
RightLeg  3.72283 3.575 -0.161571
RightFoot  -3.8441 -0.108467 1.23936
RightToes  4.6566e-010 0 -3.6325e-017
Spine  2.61195 0.0560253 0.805047
Spine1  3.07164 0.313027 -0.858416
HEad  -8.74021 -10.1343 -2.10671
LeftShoulder1  0.144287 2.24228 -2.71235
LeftArm  -21.6498 2.76525 -15.5273
LeftForeArm  -1.52271 1.59019 2.73909
LeftHand  -0.0925168 2.8332 3.53618
RightShoulder  0.0862739 -2.6327 1.1806
RightArm  -11.43 1.68783 9.82321
RightForeArm  -4.29701 -2.07828 -3.42983
RightHand  -0.206687 6.64153 -2.33819
LeftUpLeg  3.31439 7.11653 3.93879
LeftLeg  1.77985 -3.1675 0.34777
LeftFoot  -1.38314 0.0406392 -0.306714
LeftToes  -4.59298e-010 2.08438e-011 -1.27151e-011
31
root  14.0861 40.0525 0.935598 -107.064 -88.7888 103.526
RightUpLeg  3.37526 -8.19685 -4.59566
RightLeg  3.74671 3.5678 -0.17143
RightFoot  -3.85248 -0.1068 1.2135
RightToes  4.6566e-010 0 -3.6325e-017
Spine  2.58463 0.064398 0.71794
Spine1  3.08991 0.285883 -0.699946
HEad  -8.69168 -10.1004 -2.24573
LeftShoulder1  0.14366 2.20933 -2.78782
LeftArm  -21.5642 2.81901 -15.4704
LeftForeArm  -1.71449 1.52767 2.67353
LeftHand  -0.0927621 3.23722 3.71312
RightShoulder  0.0860472 -2.55867 0.996887
RightArm  -11.5316 1.58441 9.89918
RightForeArm  -3.97557 -2.00261 -3.48646
RightHand  -0.187243 6.65731 -2.14834
LeftUpLeg  3.28237 7.13045 3.94929
LeftLeg  1.78583 -3.21392 0.33504
LeftFoot  -1.37383 0.0394156 -0.287698
LeftToes  -4.59298e-010 2.08438e-011 -1.27151e-011
32
root  14.0875 40.053 0.940834 -106.371 -88.7977 102.803
RightUpLeg  3.43151 -8.18964 -4.59929
RightLeg  3.69018 3.5486 -0.18823
RightFoot  -3.81268 -0.109816 1.26031
RightToes  4.6566e-010 0 -3.6325e-017
Spine  2.6253 0.0707096 0.652743
Spine1  3.15199 0.262108 -0.553725
HEad  -8.57728 -10.1482 -2.39563
LeftShoulder1  0.1432 2.24673 -2.87672
LeftArm  -21.5571 2.7521 -15.4378
LeftForeArm  -1.81506 1.5251 2.65847
LeftHand  -0.0912984 3.16061 3.72752
RightShoulder  0.0858543 -2.56685 0.912798
RightArm  -11.4938 1.64467 9.91008
RightForeArm  -3.91273 -1.97268 -3.45988
RightHand  -0.175769 6.42503 -2.06703
LeftUpLeg  3.28957 7.10541 3.92465
LeftLeg  1.81728 -3.14125 0.366182
LeftFoot  -1.40135 0.0434853 -0.350944
LeftToes  -4.59298e-010 2.08438e-011 -1.27151e-011
33
root  14.0883 40.0537 0.94278 -104.16 -88.7966 100.624
RightUpLeg  3.40681 -8.19888 -4.61102
RightLeg  3.67917 3.51418 -0.18857
RightFoot  -3.83343 -0.112192 1.29717
RightToes  4.6566e-010 0 -3.6325e-017
Spine  2.55553 0.0792318 0.580433
Spine1  3.24971 0.245273 -0.421125
HEad  -8.40164 -10.1428 -2.36874
LeftShoulder1  0.142831 2.20398 -3.00573
LeftArm  -21.3907 2.68468 -15.2825
LeftForeArm  -1.97868 1.56872 2.55789
LeftHand  -0.0907204 3.09021 3.66047
RightShoulder  0.0856292 -2.51866 0.826211
RightArm  -11.517 1.53572 9.913
RightForeArm  -3.97218 -1.86482 -3.46405
RightHand  -0.173855 6.71376 -2.01307
LeftUpLeg  3.23913 7.05093 3.87992
LeftLeg  1.82653 -3.13309 0.40085
LeftFoot  -1.39733 0.044891 -0.372791
LeftToes  -4.59298e-010 2.08438e-011 -1.27151e-011
